<svg width="48" height="48" viewBox="0 0 48 48" fill="none" xmlns="http://www.w3.org/2000/svg">
<path d="M28 28.504V32.6828C26.7488 32.2406 25.4026 32 24 32C17.3726 32 12 37.3726 12 44H8C8 35.1634 15.1634 28 24 28C25.3812 28 26.7216 28.175 28 28.504ZM24 26C17.37 26 12 20.63 12 14C12 7.37 17.37 2 24 2C30.63 2 36 7.37 36 14C36 20.63 30.63 26 24 26ZM24 22C28.42 22 32 18.42 32 14C32 9.58 28.42 6 24 6C19.58 6 16 9.58 16 14C16 18.42 19.58 22 24 22ZM36 34V28H40V34H46V38H40V44H36V38H30V34H36Z" fill="#4B5563"/>
</svg>
