<svg viewBox="0 0 26 26" fill="currentColor" xmlns="http://www.w3.org/2000/svg">
<path d="M21.666 13.0001C21.6658 11.0684 21.0202 9.1921 19.8318 7.66921C18.6434 6.14632 16.9803 5.06411 15.1066 4.59443C13.2328 4.12475 11.2559 4.29453 9.48965 5.0768C7.72343 5.85908 6.26918 7.209 5.35783 8.91222C4.44648 10.6154 4.13027 12.5743 4.45942 14.4778C4.78858 16.3812 5.74422 18.1202 7.1746 19.4184C8.60498 20.7167 10.4281 21.4999 12.3544 21.6437C14.2808 21.7874 16.2 21.2834 17.8072 20.2118L19.0097 22.0145C17.2311 23.2037 15.1389 23.8368 12.9993 23.8334C7.0161 23.8334 2.16602 18.9833 2.16602 13.0001C2.16602 7.01683 7.0161 2.16675 12.9993 2.16675C18.9826 2.16675 23.8327 7.01683 23.8327 13.0001V14.6251C23.8328 15.4362 23.5728 16.226 23.0908 16.8785C22.6089 17.5309 21.9304 18.0116 21.1551 18.2499C20.3797 18.4883 19.5484 18.4717 18.7832 18.2026C18.0179 17.9335 17.3592 17.4261 16.9037 16.7549C16.1806 17.5067 15.2559 18.0338 14.2405 18.2728C13.2252 18.5118 12.1624 18.4525 11.18 18.1021C10.1975 17.7517 9.33707 17.1251 8.7021 16.2975C8.06713 15.47 7.68461 14.4767 7.60049 13.437C7.51638 12.3973 7.73426 11.3554 8.22794 10.4366C8.72163 9.51769 9.47012 8.76091 10.3835 8.25714C11.2969 7.75337 12.3363 7.52404 13.3768 7.5967C14.4174 7.66936 15.4149 8.04093 16.2493 8.66675H18.416V14.6251C18.416 15.0561 18.5872 15.4694 18.892 15.7741C19.1967 16.0789 19.61 16.2501 20.041 16.2501C20.472 16.2501 20.8853 16.0789 21.1901 15.7741C21.4948 15.4694 21.666 15.0561 21.666 14.6251V13.0001ZM12.9993 9.75008C12.1374 9.75008 11.3107 10.0925 10.7013 10.702C10.0918 11.3115 9.74935 12.1381 9.74935 13.0001C9.74935 13.862 10.0918 14.6887 10.7013 15.2982C11.3107 15.9077 12.1374 16.2501 12.9993 16.2501C13.8613 16.2501 14.688 15.9077 15.2974 15.2982C15.9069 14.6887 16.2493 13.862 16.2493 13.0001C16.2493 12.1381 15.9069 11.3115 15.2974 10.702C14.688 10.0925 13.8613 9.75008 12.9993 9.75008Z"  />
</svg>
