<svg viewBox="0 0 26 26" fill="currentColor" xmlns="http://www.w3.org/2000/svg">
<path d="M18.4165 3.24992H22.7498C23.0372 3.24992 23.3127 3.36406 23.5159 3.56722C23.719 3.77038 23.8332 4.04593 23.8332 4.33325V21.6666C23.8332 21.9539 23.719 22.2295 23.5159 22.4326C23.3127 22.6358 23.0372 22.7499 22.7498 22.7499H3.24984C2.96252 22.7499 2.68697 22.6358 2.4838 22.4326C2.28064 22.2295 2.1665 21.9539 2.1665 21.6666V4.33325C2.1665 4.04593 2.28064 3.77038 2.4838 3.56722C2.68697 3.36406 2.96252 3.24992 3.24984 3.24992H7.58317V1.08325H9.74984V3.24992H16.2498V1.08325H18.4165V3.24992ZM16.2498 5.41659H9.74984V7.58325H7.58317V5.41659H4.33317V9.74992H21.6665V5.41659H18.4165V7.58325H16.2498V5.41659ZM21.6665 11.9166H4.33317V20.5833H21.6665V11.9166Z" />
</svg>
