<svg viewBox="0 0 24 24" fill="currentColor" xmlns="http://www.w3.org/2000/svg">
<path d="M10.9961 19V9H3.99609V19H10.9961ZM10.9961 7V4C10.9961 3.44772 11.4438 3 11.9961 3H20.9961C21.5484 3 21.9961 3.44772 21.9961 4V20C21.9961 20.5523 21.5484 21 20.9961 21H2.99609C2.44381 21 1.99609 20.5523 1.99609 20V8C1.99609 7.44772 2.44381 7 2.99609 7H10.9961ZM12.9961 5V19H19.9961V5H12.9961ZM4.99609 16H9.99609V18H4.99609V16ZM13.9961 16H18.9961V18H13.9961V16ZM13.9961 13H18.9961V15H13.9961V13ZM13.9961 10H18.9961V12H13.9961V10ZM4.99609 13H9.99609V15H4.99609V13Z" />
</svg>
