<svg viewBox="0 0 48 48" fill="currentColor" xmlns="http://www.w3.org/2000/svg">
<path d="M38.9336 17.3876L39.4268 16.2562C40.3058 14.2389 41.889 12.6328 43.8646 11.7542L45.3838 11.0784C46.2054 10.7131 46.2054 9.51762 45.3838 9.15224L43.9496 8.51428C41.9232 7.61302 40.3116 5.94746 39.4476 3.86166L38.9412 2.63906C38.5884 1.78698 37.4116 1.78698 37.0586 2.63906L36.5522 3.86166C35.6884 5.94746 34.0768 7.61302 32.0504 8.51428L30.6162 9.15224C29.7946 9.51762 29.7946 10.7131 30.6162 11.0784L32.1354 11.7542C34.111 12.6328 35.6942 14.2389 36.5732 16.2562L37.0662 17.3876C37.4272 18.2158 38.5728 18.2158 38.9336 17.3876ZM10 12C9.3705 12 8.77772 12.2964 8.4 12.8L2.4 20.8C1.82668 21.5644 1.87419 22.6276 2.51342 23.338L20.5134 43.338C20.8928 43.7594 21.433 44 22 44C22.567 44 23.1074 43.7594 23.4866 43.338L41.4866 23.338L38.5134 20.662L22 39.0104L6.5867 21.8844L11 16H28V12H10Z" />
</svg>
