<svg viewBox="0 0 24 24" fill="currentColor" xmlns="http://www.w3.org/2000/svg">
<path d="M20.0039 22H4.00391C3.45163 22 3.00391 21.5523 3.00391 21V3C3.00391 2.44772 3.45163 2 4.00391 2H20.0039C20.5562 2 21.0039 2.44772 21.0039 3V21C21.0039 21.5523 20.5562 22 20.0039 22ZM19.0039 20V4H5.00391V20H19.0039ZM9.00391 6V8C9.00391 9.65685 10.347 11 12.0039 11C13.6607 11 15.0039 9.65685 15.0039 8V6H17.0039V8C17.0039 10.7614 14.7653 13 12.0039 13C9.24249 13 7.00391 10.7614 7.00391 8V6H9.00391Z" />
</svg>
