<svg viewBox="0 0 48 48" fill="currentColor"  xmlns="http://www.w3.org/2000/svg">
<path d="M24.0006 6C34.7848 6 43.7568 13.7595 45.6378 24C43.7568 34.2404 34.7848 42 24.0006 42C13.2162 42 4.2443 34.2404 2.36328 24C4.2443 13.7595 13.2162 6 24.0006 6ZM24.0006 38C32.4718 38 39.7206 32.104 41.5554 24C39.7206 15.8961 32.4718 10 24.0006 10C15.5292 10 8.28044 15.8961 6.44556 24C8.28044 32.104 15.5292 38 24.0006 38ZM24.0006 33C19.03 33 15.0005 28.9706 15.0005 24C15.0005 19.0294 19.03 15 24.0006 15C28.971 15 33.0006 19.0294 33.0006 24C33.0006 28.9706 28.971 33 24.0006 33ZM24.0006 29C26.762 29 29.0006 26.7614 29.0006 24C29.0006 21.2386 26.762 19 24.0006 19C21.2392 19 19.0005 21.2386 19.0005 24C19.0005 26.7614 21.2392 29 24.0006 29Z"  />
</svg>
