<svg viewBox="0 0 24 24" fill="currentColor" xmlns="http://www.w3.org/2000/svg">
<path d="M4 17.7998V6.2002C4 5.65664 3.99893 5.18845 4.03028 4.80469C4.06258 4.40942 4.13437 4.01605 4.32715 3.6377C4.61475 3.07334 5.07334 2.61475 5.6377 2.32715C6.01605 2.13437 6.40942 2.06258 6.80469 2.03028C7.18845 1.99893 7.65664 2 8.2002 2H12.6748C12.7959 2 12.9079 2.00006 13.0088 2.00098C13.3005 2.00364 13.5802 2.01297 13.8721 2.08301C14.1789 2.15669 14.4715 2.27831 14.7393 2.44239C15.0654 2.64227 15.3326 2.9185 15.6445 3.23047L18.7705 6.35547C19.0838 6.66871 19.3579 6.93482 19.5576 7.26075C19.7216 7.52831 19.8433 7.82101 19.917 8.12793C19.9855 8.41323 19.995 8.68684 19.9981 8.97266C19.9983 8.98176 20 8.99084 20 9C20 9.00621 19.9991 9.01238 19.999 9.01856C19.9998 9.11239 20 9.21571 20 9.32618V17.8037C20 18.3461 20.0011 18.8132 19.9697 19.1963C19.9374 19.5911 19.8655 19.9843 19.6729 20.3623C19.385 20.927 18.9251 21.3856 18.3613 21.6729C17.9833 21.8655 17.5902 21.9374 17.1953 21.9697C17.004 21.9854 16.7917 21.9924 16.5596 21.9961L15.8027 22H8.19727C7.65479 22 7.18701 22.0011 6.80372 21.9697C6.40888 21.9375 6.01581 21.8655 5.6377 21.6729C5.0729 21.385 4.61446 20.926 4.32715 20.3623C4.13441 19.984 4.06259 19.5906 4.03028 19.1953C3.99893 18.8117 4 18.3434 4 17.7998ZM6 17.7998C6 18.3764 6.00127 18.749 6.02442 19.0322C6.04661 19.3037 6.08417 19.4046 6.10938 19.4541C6.20555 19.6427 6.35841 19.7961 6.5459 19.8916C6.59521 19.9167 6.69595 19.9544 6.9668 19.9766C7.24975 19.9997 7.62181 20 8.19727 20H15.8027C16.3779 20 16.7496 19.9996 17.0322 19.9766C17.3025 19.9545 17.4037 19.9167 17.4531 19.8916C17.6418 19.7955 17.796 19.6417 17.8916 19.4541C17.9167 19.4048 17.9544 19.3042 17.9766 19.0332C17.9997 18.7505 18 18.3791 18 17.8037V10H16.1973C15.6548 10 15.187 10.0011 14.8037 9.96973C14.4089 9.93745 14.0158 9.86552 13.6377 9.67286C13.0725 9.38478 12.6143 8.92486 12.3272 8.36133C12.1345 7.98319 12.0626 7.59045 12.0303 7.19532C11.9989 6.81173 12 6.34335 12 5.79981V4H8.2002C7.62366 4 7.25124 4.00127 6.96778 4.02442C6.69598 4.04662 6.59528 4.08422 6.5459 4.10938C6.35779 4.20524 6.20524 4.35779 6.10938 4.5459C6.08422 4.59528 6.04662 4.69598 6.02442 4.96778C6.00127 5.25124 6 5.62366 6 6.2002V17.7998ZM14 5.79981C14 6.37637 14.0003 6.74901 14.0234 7.03223C14.0456 7.30313 14.0842 7.40357 14.1094 7.45313C14.2057 7.64217 14.3586 7.79618 14.5459 7.89161C14.5952 7.91668 14.6959 7.95443 14.9668 7.97657C15.2497 7.99969 15.6218 8 16.1973 8H17.5801C17.5203 7.93894 17.4479 7.86289 17.3555 7.77051L14.2305 4.64454C14.1377 4.55172 14.0613 4.47895 14 4.41895V5.79981Z" />
</svg>
