<svg viewBox="0 0 48 48" fill="currentColor" xmlns="http://www.w3.org/2000/svg">
<path d="M32 27C32 24.2386 29.7614 22 27 22C24.2386 22 22 24.2386 22 27C22 29.7614 24.2386 32 27 32C29.7614 32 32 29.7614 32 27ZM38 20V14.3936C38 13.2428 37.9984 12.4994 37.9522 11.9336C37.9078 11.3912 37.8324 11.1903 37.7822 11.0918C37.5916 10.7177 37.2856 10.4106 36.9072 10.2178C36.8081 10.1673 36.6061 10.0922 36.0635 10.0479C35.4973 10.0016 34.7534 10 33.6006 10H14.4004C13.2473 10 12.5025 10.0015 11.9355 10.0479C11.3924 10.0922 11.1907 10.1675 11.0918 10.2178C10.7155 10.4095 10.4095 10.7155 10.2178 11.0918C10.1675 11.1907 10.0922 11.3924 10.0479 11.9355C10.0015 12.5025 10 13.2473 10 14.4004V33.6006C10 34.7536 10.0016 35.498 10.0479 36.0645C10.0922 36.6075 10.1673 36.8092 10.2178 36.9082C10.4101 37.2855 10.7167 37.5911 11.0918 37.7822C11.1903 37.8324 11.3912 37.9078 11.9336 37.9522C12.4994 37.9984 13.2428 38 14.3936 38H20C21.1046 38 22 38.8954 22 40C22 41.1046 21.1046 42 20 42H14.3936C13.3089 42 12.3748 42.0011 11.6084 41.9385C10.8186 41.8739 10.0318 41.7321 9.27539 41.3467C8.14535 40.7709 7.22895 39.8514 6.6543 38.7236C6.26883 37.9671 6.12616 37.1811 6.06152 36.3906C5.99883 35.6235 6 34.6876 6 33.6006V14.4004C6 13.3134 5.99886 12.3778 6.06152 11.6104C6.12611 10.8196 6.26865 10.0323 6.6543 9.27539C7.2295 8.14667 8.14667 7.2295 9.27539 6.6543C10.0323 6.26865 10.8196 6.12611 11.6104 6.06152C12.3778 5.99886 13.3134 6 14.4004 6H33.6006C34.6875 6 35.6227 5.99883 36.3897 6.06152C37.1803 6.12616 37.9661 6.26882 38.7227 6.6543C39.8494 7.22842 40.7703 8.14431 41.3467 9.27539C41.7321 10.0318 41.8739 10.8186 41.9385 11.6084C42.0011 12.3748 42 13.3089 42 14.3936V20C42 21.1046 41.1046 22 40 22C38.8954 22 38 21.1046 38 20ZM36 27C36 28.761 35.4923 30.4026 34.6182 31.79L39.4141 36.5859C40.1951 37.367 40.1951 38.633 39.4141 39.4141C38.633 40.1951 37.367 40.1951 36.5859 39.4141L31.79 34.6182C30.4026 35.4923 28.761 36 27 36C22.0294 36 18 31.9706 18 27C18 22.0294 22.0294 18 27 18C31.9706 18 36 22.0294 36 27Z" />
</svg>
