<svg viewBox="0 0 24 24" fill="currentColor" xmlns="http://www.w3.org/2000/svg">
<path d="M3 20.9999V4.31342C3 4.00577 3.14146 3.71486 3.38379 3.52533C5.04443 2.22684 6.66788 1.87015 8.24316 2.03998C9.74627 2.20211 11.1665 2.8455 12.4082 3.40033C13.7118 3.98283 14.8376 4.47631 15.9707 4.59857C17.0317 4.71301 18.1355 4.50142 19.3838 3.52533C19.685 3.28979 20.0947 3.24742 20.4385 3.41498C20.782 3.58262 21 3.93117 21 4.31342V15.6865C21 15.9941 20.8585 16.285 20.6162 16.4745C18.9556 17.773 17.3321 18.1307 15.7568 17.9609C14.2537 17.7988 12.8335 17.1543 11.5918 16.5995C10.2882 16.0171 9.16242 15.5235 8.0293 15.4013C7.07827 15.2987 6.09311 15.4591 5 16.1962V20.9999C5 21.5522 4.55228 21.9999 4 21.9999C3.44772 21.9999 3 21.5522 3 20.9999ZM8.0293 4.02826C7.07831 3.92568 6.09306 4.08516 5 4.82221V13.915C6.10086 13.425 7.18257 13.2987 8.24316 13.413C9.74626 13.5751 11.1665 14.2196 12.4082 14.7744C13.7118 15.3568 14.8376 15.8504 15.9707 15.9726C16.9219 16.0752 17.9067 15.9141 19 15.1767V6.0849C17.8991 6.57493 16.8175 6.7012 15.7568 6.58685C14.2537 6.42472 12.8335 5.78133 11.5918 5.2265C10.2882 4.644 9.16245 4.15053 8.0293 4.02826Z" />
</svg>
