<svg viewBox="0 0 48 48" fill="currentColor" xmlns="http://www.w3.org/2000/svg">
<path d="M40 18.3994C40 17.2465 39.9984 16.5021 39.9521 15.9355C39.9078 15.3923 39.8326 15.1907 39.7822 15.0917C39.5914 14.7172 39.2853 14.4104 38.9072 14.2177C38.8082 14.1673 38.6063 14.0922 38.0635 14.0478C37.4971 14.0015 36.7525 13.9999 35.5996 13.9999H8V33.5996C8 34.7524 8.00159 35.497 8.04785 36.0634C8.09222 36.6063 8.16733 36.8082 8.21777 36.9072C8.41041 37.2852 8.71722 37.5913 9.0918 37.7822C9.19026 37.8323 9.39122 37.9078 9.9336 37.9521C10.4994 37.9983 11.2428 38 12.3936 38H35.6064C36.7572 38 37.5001 37.9983 38.0654 37.9521C38.6073 37.9078 38.8086 37.8324 38.9072 37.7822C39.2842 37.59 39.591 37.2825 39.7822 36.9072C39.8326 36.8082 39.9078 36.6064 39.9521 36.0634C39.9984 35.4968 40 34.7524 40 33.5996V18.3994ZM28.5859 20.5859C29.367 19.8048 30.633 19.8048 31.4141 20.5859C32.1951 21.3669 32.1951 22.633 31.4141 23.414L23.4141 31.414C22.633 32.1951 21.367 32.1951 20.5859 31.414L16.5859 27.414C15.8049 26.633 15.8049 25.3669 16.5859 24.5859C17.367 23.8048 18.633 23.8048 19.4141 24.5859L22 27.1718L28.5859 20.5859ZM44 33.5996C44 34.6866 44.0021 35.6223 43.9395 36.3896C43.8749 37.1803 43.7323 37.9668 43.3467 38.7236C42.771 39.8534 41.8508 40.7718 40.7227 41.3466C39.9666 41.7318 39.1812 41.8738 38.3916 41.9384C37.6254 42.0011 36.6912 42 35.6064 42H12.3936C11.3089 42 10.3748 42.001 9.6084 41.9384C8.81859 41.8739 8.03177 41.732 7.27539 41.3466C6.14489 40.7706 5.22865 39.8505 4.6543 38.7236C4.26877 37.9669 4.12614 37.1802 4.06152 36.3896C3.99883 35.6224 4 34.6866 4 33.5996V11.9999C4 8.68624 6.68629 5.99995 10 5.99995H17.3486C18.2316 5.99995 19.001 5.98732 19.7451 6.16597C20.3593 6.31343 20.9435 6.55686 21.4785 6.88472C22.1308 7.28447 22.6651 7.83694 23.2891 8.46089L24.8281 9.99995H35.5996C36.6867 9.99995 37.6225 9.99878 38.3896 10.0615C39.1803 10.1261 39.967 10.2687 40.7236 10.6542C41.8506 11.2286 42.7706 12.1448 43.3467 13.2753C43.7323 14.0321 43.8748 14.8187 43.9395 15.6093C44.0021 16.3766 44 17.3123 44 18.3994V33.5996Z" />
</svg>
