<svg viewBox="0 0 48 48" fill="currentColor" xmlns="http://www.w3.org/2000/svg">
<path d="M40 18.3996C40 17.2468 39.9984 16.5024 39.9521 15.9357C39.9078 15.3926 39.8326 15.1909 39.7822 15.092C39.5916 14.7179 39.2856 14.4108 38.9072 14.218C38.8082 14.1675 38.6063 14.0924 38.0635 14.048C37.4972 14.0018 36.7526 14.0002 35.5996 14.0002H8V33.5998C8 34.7528 8.00158 35.4974 8.04785 36.0637C8.09222 36.6065 8.16731 36.8084 8.21777 36.9074C8.41063 37.2858 8.7177 37.5918 9.0918 37.7824C9.19026 37.8326 9.39122 37.908 9.9336 37.9523C10.4994 37.9986 11.2428 38.0002 12.3936 38.0002H35.6074C36.7582 38.0002 37.501 37.9986 38.0664 37.9523C38.6083 37.908 38.8095 37.8327 38.9082 37.7824C39.2839 37.5909 39.5903 37.2842 39.7822 36.9074C39.8326 36.8085 39.9078 36.6066 39.9521 36.0637C39.9984 35.497 40 34.7526 40 33.5998V18.3996ZM30 28.0002C31.1046 28.0002 32 28.8956 32 30.0002C32 31.1048 31.1046 32.0002 30 32.0002H18C16.8954 32.0002 16 31.1048 16 30.0002C16 28.8956 16.8954 28.0002 18 28.0002H30ZM30 22.0002C31.1046 22.0002 32 22.8956 32 24.0002C32 25.1048 31.1046 26.0002 30 26.0002H18C16.8954 26.0002 16 25.1048 16 24.0002C16 22.8956 16.8954 22.0002 18 22.0002H30ZM44 33.5998C44 34.6869 44.0021 35.6225 43.9395 36.3898C43.8749 37.1805 43.7323 37.9671 43.3467 38.7238C42.7717 39.8523 41.8531 40.7714 40.7236 41.3469C39.9676 41.732 39.1822 41.8741 38.3926 41.9387C37.6263 42.0013 36.6923 42.0002 35.6074 42.0002H12.3936C11.3089 42.0002 10.3748 42.0013 9.6084 41.9387C8.81859 41.8741 8.03177 41.7323 7.27539 41.3469C6.14432 40.7705 5.22843 39.8496 4.6543 38.7228C4.26881 37.9663 4.12615 37.1804 4.06152 36.3898C3.99882 35.6227 4 34.6869 4 33.5998V12.0002C4 8.68648 6.68629 6.00019 10 6.00019H17.3486C18.2314 6.00019 19.0011 5.98765 19.7451 6.16621C20.36 6.31383 20.9441 6.55744 21.4785 6.88496C22.1308 7.28471 22.6651 7.8372 23.2891 8.46113L24.8281 10.0002H35.5996C36.6867 10.0002 37.6226 9.99901 38.3896 10.0617C39.1802 10.1263 39.9661 10.269 40.7227 10.6545C41.8494 11.2286 42.7703 12.1445 43.3467 13.2756C43.7323 14.0323 43.8748 14.8189 43.9395 15.6096C44.0021 16.3769 44 17.3126 44 18.3996V33.5998Z" />
</svg>
