<svg viewBox="0 0 48 48" fill="currentColor" xmlns="http://www.w3.org/2000/svg">
<path d="M6.32013 8.93735C8.64026 6.61681 11.7521 5.25953 15.0313 5.13785C18.3105 5.01618 21.5144 6.13912 24.0001 8.28135C26.4836 6.14269 29.6833 5.02101 32.9586 5.14088C36.2338 5.26074 39.3429 6.6133 41.6635 8.92776C43.984 11.2422 45.3447 14.3478 45.4731 17.6227C45.6016 20.8977 44.4883 24.1003 42.3561 26.5894L26.8261 42.1693C26.1126 42.8831 25.1557 43.3008 24.1472 43.3386C23.1387 43.3764 22.1531 43.0316 21.3881 42.3734L21.1681 42.1714L5.64013 26.5894C3.50911 24.1024 2.39529 20.9028 2.52136 17.6301C2.64743 14.3575 4.0041 11.253 6.32013 8.93735ZM9.14813 11.7654C7.51262 13.4013 6.56984 15.6042 6.51547 17.9169C6.4611 20.2295 7.29931 22.4743 8.85613 24.1854L9.14813 24.4934L23.9981 39.3434L34.6041 28.7354L27.5341 21.6654L25.4141 23.7854C24.8571 24.3427 24.1957 24.7848 23.4677 25.0866C22.7398 25.3883 21.9595 25.5437 21.1715 25.5439C19.5801 25.5442 18.0537 24.9124 16.9281 23.7874C15.8026 22.6623 15.17 21.1362 15.1696 19.5448C15.1692 17.9533 15.8011 16.4269 16.9261 15.3014L21.1301 11.0954C19.4571 9.7601 17.363 9.06473 15.2235 9.13401C13.0841 9.20328 11.0393 10.0327 9.45613 11.4734L9.14813 11.7654ZM26.1201 17.4214C26.4952 17.0464 27.0038 16.8358 27.5341 16.8358C28.0645 16.8358 28.5731 17.0464 28.9481 17.4214L37.4321 25.9054L38.8481 24.4934C40.511 22.8316 41.4578 20.5852 41.4858 18.2345C41.5138 15.8838 40.621 13.6154 38.9982 11.9145C37.3754 10.2135 35.1515 9.21509 32.802 9.13266C30.4526 9.05023 28.1642 9.89035 26.4261 11.4734L26.1201 11.7654L19.7561 18.1294C19.4095 18.4758 19.2021 18.9374 19.1733 19.4267C19.1446 19.9159 19.2964 20.3987 19.6001 20.7834L19.7561 20.9574C20.1026 21.304 20.5642 21.5114 21.0535 21.5402C21.5427 21.5689 22.0255 21.417 22.4101 21.1134L22.5841 20.9574L26.1201 17.4214Z" />
</svg>
