<svg viewBox="0 0 26 26" fill="currentColor"  xmlns="http://www.w3.org/2000/svg">
<path d="M12.9993 23.8333C7.0161 23.8333 2.16602 18.9832 2.16602 13C2.16602 7.01671 7.0161 2.16663 12.9993 2.16663C18.9826 2.16663 23.8327 7.01671 23.8327 13C23.8327 18.9832 18.9826 23.8333 12.9993 23.8333ZM12.9993 21.6666C15.2979 21.6666 17.5023 20.7535 19.1276 19.1282C20.7529 17.5029 21.666 15.2985 21.666 13C21.666 10.7014 20.7529 8.49702 19.1276 6.8717C17.5023 5.24639 15.2979 4.33329 12.9993 4.33329C10.7008 4.33329 8.49641 5.24639 6.87109 6.8717C5.24578 8.49702 4.33268 10.7014 4.33268 13C4.33268 15.2985 5.24578 17.5029 6.87109 19.1282C8.49641 20.7535 10.7008 21.6666 12.9993 21.6666ZM11.916 7.58329H14.0827V9.74996H11.916V7.58329ZM11.916 11.9166H14.0827V18.4166H11.916V11.9166Z"  />
</svg>
