<svg viewBox="0 0 26 26" fill="currentColor" xmlns="http://www.w3.org/2000/svg">
<path d="M20.5833 10.8334H21.6667C21.954 10.8334 22.2295 10.9476 22.4327 11.1507C22.6359 11.3539 22.75 11.6294 22.75 11.9167V22.7501C22.75 23.0374 22.6359 23.313 22.4327 23.5161C22.2295 23.7193 21.954 23.8334 21.6667 23.8334H4.33333C4.04602 23.8334 3.77047 23.7193 3.5673 23.5161C3.36414 23.313 3.25 23.0374 3.25 22.7501V11.9167C3.25 11.6294 3.36414 11.3539 3.5673 11.1507C3.77047 10.9476 4.04602 10.8334 4.33333 10.8334H5.41667V9.75008C5.41667 8.75422 5.61282 7.76812 5.99391 6.84807C6.37501 5.92801 6.9336 5.09203 7.63777 4.38786C8.34195 3.68368 9.17793 3.12509 10.098 2.74399C11.018 2.3629 12.0041 2.16675 13 2.16675C13.9959 2.16675 14.982 2.3629 15.902 2.74399C16.8221 3.12509 17.658 3.68368 18.3622 4.38786C19.0664 5.09203 19.625 5.92801 20.0061 6.84807C20.3872 7.76812 20.5833 8.75422 20.5833 9.75008V10.8334ZM5.41667 13.0001V21.6667H20.5833V13.0001H5.41667ZM11.9167 15.1667H14.0833V19.5001H11.9167V15.1667ZM18.4167 10.8334V9.75008C18.4167 8.31349 17.846 6.93574 16.8302 5.91992C15.8143 4.9041 14.4366 4.33341 13 4.33341C11.5634 4.33341 10.1857 4.9041 9.16984 5.91992C8.15402 6.93574 7.58333 8.31349 7.58333 9.75008V10.8334H18.4167Z" />
</svg>
