<svg viewBox="0 0 48 48" fill="currentColor" xmlns="http://www.w3.org/2000/svg">
<path d="M4.00001 38.7998V18C4.00001 16.8954 4.89544 16 6.00001 16C7.10458 16 8.00001 16.8954 8.00001 18V38.7998C8.00001 39.3926 8.00149 39.7172 8.02051 39.9502C8.02124 39.959 8.02271 39.9676 8.02344 39.9756C8.03121 39.9763 8.03924 39.9788 8.04786 39.9795C8.28062 39.9985 8.60533 40 9.19727 40H30C31.1046 40 32 40.8954 32 42C32 43.1046 31.1046 44 30 44H9.19727C8.67134 44 8.1561 44.0012 7.72266 43.9658C7.26596 43.9285 6.72627 43.841 6.1836 43.5645C5.42924 43.1801 4.81813 42.5663 4.43555 41.8154C4.15914 41.2728 4.07155 40.7335 4.03419 40.2764C3.99873 39.8426 4.00001 39.3268 4.00001 38.7998ZM40 27.5996V12.3994C40 11.2466 39.9984 10.5022 39.9522 9.93555C39.9078 9.39237 39.8326 9.19071 39.7822 9.0918C39.5911 8.71668 39.2855 8.41011 38.9082 8.21777C38.8092 8.16735 38.6075 8.09223 38.0645 8.04785C37.498 8.00156 36.7536 8 35.6006 8H20.4004C19.2473 8 18.5025 8.00155 17.9356 8.04785C17.3924 8.09222 17.1907 8.16745 17.0918 8.21777C16.7155 8.40952 16.4095 8.71548 16.2178 9.0918C16.1675 9.19066 16.0922 9.39237 16.0479 9.93555C16.0016 10.5025 16 11.2473 16 12.4004V27.6006C16 28.7536 16.0016 29.498 16.0479 30.0645C16.0922 30.6075 16.1674 30.8092 16.2178 30.9082C16.4101 31.2855 16.7167 31.5911 17.0918 31.7822C17.1903 31.8324 17.3912 31.9078 17.9336 31.9522C18.4994 31.9984 19.2428 32 20.3936 32H35.6074C36.7582 32 37.501 31.9984 38.0664 31.9522C38.6083 31.9078 38.8095 31.8325 38.9082 31.7822C39.2841 31.5906 39.5904 31.2836 39.7822 30.9072C39.8326 30.8083 39.9078 30.6064 39.9522 30.0635C39.9984 29.4969 40 28.7524 40 27.5996ZM32.5859 14.5859C33.367 13.8049 34.633 13.8049 35.4141 14.5859C36.1951 15.367 36.1951 16.633 35.4141 17.4141L27.4141 25.4141C26.633 26.1951 25.367 26.1951 24.5859 25.4141L20.5859 21.4141C19.8049 20.633 19.8049 19.367 20.5859 18.5859C21.367 17.8049 22.633 17.8049 23.4141 18.5859L26 21.1719L32.5859 14.5859ZM44 27.5996C44 28.6867 44.0021 29.6223 43.9395 30.3897C43.8749 31.1803 43.7323 31.9669 43.3467 32.7236C42.7715 33.8524 41.8528 34.7713 40.7236 35.3467C39.9676 35.7318 39.1822 35.8739 38.3926 35.9385C37.6264 36.0011 36.6922 36 35.6074 36H20.3936C19.3089 36 18.3748 36.0011 17.6084 35.9385C16.8186 35.8739 16.0318 35.7321 15.2754 35.3467C14.1454 34.7709 13.229 33.8514 12.6543 32.7236C12.2688 31.9671 12.1262 31.1811 12.0615 30.3906C11.9988 29.6235 12 28.6876 12 27.6006V12.4004C12 11.3134 11.9989 10.3778 12.0615 9.61035C12.1261 8.81962 12.2687 8.03227 12.6543 7.27539C13.2295 6.14667 14.1467 5.2295 15.2754 4.6543C16.0323 4.26865 16.8196 4.12611 17.6104 4.06152C18.3778 3.99886 19.3134 4 20.4004 4H35.6006C36.6876 4 37.6235 3.99883 38.3906 4.06152C39.1811 4.12616 39.9671 4.26883 40.7236 4.6543C41.8514 5.22895 42.7709 6.14535 43.3467 7.27539C43.7323 8.03211 43.8749 8.81873 43.9395 9.60938C44.0021 10.3767 44 11.3124 44 12.3994V27.5996Z" />
</svg>
