<svg  viewBox="0 0 48 48" fill="currentColor" xmlns="http://www.w3.org/2000/svg">
<path d="M8.00053 42V32C8.00053 30.8954 8.89596 30 10.0005 30H20.0005C21.1051 30 22.0005 30.8954 22.0005 32C22.0005 33.1046 21.1051 34 20.0005 34H14.2056C15.1659 34.9407 16.2604 35.7438 17.4605 36.3779C19.7762 37.6014 22.3898 38.1511 25.0025 37.9639C27.6152 37.7765 30.1225 36.8605 32.2398 35.3193C34.3573 33.778 35.9998 31.6735 36.981 29.2451C37.3947 28.2211 38.5605 27.7261 39.5845 28.1396C40.6086 28.5534 41.1036 29.7191 40.69 30.7432C39.4284 33.8656 37.3161 36.5719 34.5933 38.5537C31.8703 40.5356 28.6462 41.7124 25.2876 41.9531C21.9289 42.1938 18.5689 41.4883 15.5913 39.915C14.2909 39.2279 13.0863 38.3872 12.0005 37.416V42C12.0005 43.1046 11.1051 44 10.0005 44C8.89596 44 8.00053 43.1046 8.00053 42ZM36.0005 6C36.0005 4.89543 36.896 4 38.0005 4C39.1051 4 40.0005 4.89543 40.0005 6V16C40.0005 17.1046 39.1051 18 38.0005 18H28.0005C26.896 18 26.0005 17.1046 26.0005 16C26.0005 14.8954 26.896 14 28.0005 14H33.7964C32.8364 13.059 31.7426 12.2551 30.5425 11.6211C28.2266 10.3975 25.6157 9.84896 23.0035 10.0361C20.3907 10.2234 17.8798 11.1403 15.7622 12.6816C13.6448 14.223 12.0022 16.3275 11.021 18.7559C10.6073 19.7799 9.44161 20.275 8.41752 19.8613C7.39346 19.4476 6.89844 18.2819 7.31205 17.2578C8.57359 14.1354 10.686 11.4291 13.4087 9.44727C16.1316 7.46538 19.3586 6.28666 22.7173 6.0459C26.0763 5.80518 29.4334 6.51195 32.4107 8.08496C33.7107 8.77183 34.9156 9.61132 36.0005 10.582V6Z" />
</svg>
