<svg viewBox="0 0 48 48" fill="currentColor" xmlns="http://www.w3.org/2000/svg">
<path d="M38 24C38 16.268 31.732 10 24 10C16.268 10 10 16.268 10 24C10 31.732 16.268 38 24 38C31.732 38 38 31.732 38 24ZM28 24C28 21.7909 26.2091 20 24 20C21.7909 20 20 21.7909 20 24C20 26.2091 21.7909 28 24 28C26.2091 28 28 26.2091 28 24ZM32 24C32 28.4183 28.4183 32 24 32C19.5817 32 16 28.4183 16 24C16 19.5817 19.5817 16 24 16C28.4183 16 32 19.5817 32 24ZM42 24C42 33.9411 33.9411 42 24 42C14.0589 42 6 33.9411 6 24C6 14.0589 14.0589 6 24 6C33.9411 6 42 14.0589 42 24Z" />
</svg>
