<svg viewBox="0 0 26 26" fill="currentColor" xmlns="http://www.w3.org/2000/svg">
<path d="M19.5329 18.0014L24.1725 22.641L22.6405 24.173L18.0009 19.5334C16.3327 20.8681 14.217 21.6665 11.916 21.6665C6.53402 21.6665 2.16602 17.2985 2.16602 11.9165C2.16602 6.5345 6.53402 2.1665 11.916 2.1665C17.298 2.1665 21.666 6.5345 21.666 11.9165C21.666 14.2175 20.8676 16.3331 19.5329 18.0014ZM17.3594 17.1975C18.6841 15.8323 19.4993 13.9701 19.4993 11.9165C19.4993 7.72671 16.1058 4.33317 11.916 4.33317C7.72622 4.33317 4.33268 7.72671 4.33268 11.9165C4.33268 16.1063 7.72622 19.4998 11.916 19.4998C13.9696 19.4998 15.8318 18.6846 17.197 17.3599L17.3594 17.1975ZM13.1921 7.7741C12.4397 8.11381 11.916 8.87067 11.916 9.74984C11.916 10.9465 12.886 11.9165 14.0827 11.9165C14.9618 11.9165 15.7187 11.3928 16.0585 10.6405C16.1825 11.0439 16.2493 11.4723 16.2493 11.9165C16.2493 14.3097 14.3092 16.2498 11.916 16.2498C9.52278 16.2498 7.58268 14.3097 7.58268 11.9165C7.58268 9.52327 9.52278 7.58317 11.916 7.58317C12.3602 7.58317 12.7886 7.64998 13.1921 7.7741Z"/>
</svg>
