<svg viewBox="0 0 48 48" fill="currentColor" xmlns="http://www.w3.org/2000/svg">
<path d="M10 9.20868V27.5778C10 30.2526 11.3368 32.7504 13.5624 34.2342L24 41.1926L34.4376 34.2342C36.6632 32.7504 38 30.2526 38 27.5778V9.20868L24 6.09758L10 9.20868ZM7.56614 5.65196L24 2L40.4338 5.65196C41.349 5.85532 42 6.66694 42 7.60434V27.5778C42 31.59 39.9948 35.3368 36.6564 37.5624L24 46L11.3436 37.5624C8.00522 35.3368 6 31.59 6 27.5778V7.60434C6 6.66694 6.65106 5.85532 7.56614 5.65196ZM24 27L18.1221 30.0902L19.2447 23.545L14.4894 18.9098L21.061 17.9549L24 12L26.939 17.9549L33.5106 18.9098L28.7552 23.545L29.8778 30.0902L24 27Z" />
</svg>
