<svg viewBox="0 0 26 26" fill="currentColor"  xmlns="http://www.w3.org/2000/svg">
<path d="M14.084 1.08301L14.0851 4.40017C15.9941 4.64153 17.7687 5.51106 19.1292 6.87182C20.4898 8.23257 21.3591 10.0072 21.6002 11.9163H24.9173V14.083L21.6002 14.0841C21.3588 15.993 20.4895 17.7674 19.1289 19.128C17.7684 20.4885 15.994 21.3579 14.0851 21.5992L14.084 24.9163H11.9173V21.5992C10.0082 21.3581 8.23355 20.4888 6.87279 19.1283C5.51204 17.7677 4.64251 15.9932 4.40115 14.0841L1.08398 14.083V11.9163H4.40115C4.64229 10.0071 5.51171 8.23229 6.87249 6.87151C8.23326 5.51074 10.0081 4.64131 11.9173 4.40017V1.08301H14.084ZM13.0007 6.49967C11.2767 6.49967 9.62344 7.18449 8.40446 8.40348C7.18547 9.62247 6.50065 11.2758 6.50065 12.9997C6.50065 14.7236 7.18547 16.3769 8.40446 17.5959C9.62344 18.8149 11.2767 19.4997 13.0007 19.4997C14.7246 19.4997 16.3779 18.8149 17.5968 17.5959C18.8158 16.3769 19.5007 14.7236 19.5007 12.9997C19.5007 11.2758 18.8158 9.62247 17.5968 8.40348C16.3779 7.18449 14.7246 6.49967 13.0007 6.49967ZM13.0007 10.833C13.5753 10.833 14.1264 11.0613 14.5327 11.4676C14.939 11.8739 15.1673 12.425 15.1673 12.9997C15.1673 13.5743 14.939 14.1254 14.5327 14.5317C14.1264 14.9381 13.5753 15.1663 13.0007 15.1663C12.426 15.1663 11.8749 14.9381 11.4686 14.5317C11.0623 14.1254 10.834 13.5743 10.834 12.9997C10.834 12.425 11.0623 11.8739 11.4686 11.4676C11.8749 11.0613 12.426 10.833 13.0007 10.833Z" />
</svg>
