<svg viewBox="0 0 48 48" fill="currentColor"  xmlns="http://www.w3.org/2000/svg">
<path d="M8.00197 40V28C8.00197 19.1634 15.1654 12 24.0019 12C32.8385 12 40.0019 19.1634 40.0019 28V40H42.0019V44H6.00197V40H8.00197ZM12.002 40H36.0019V28C36.0019 21.3726 30.6293 16 24.0019 16C17.3745 16 12.002 21.3726 12.002 28V40ZM22.0019 4H26.0019V10H22.0019V4ZM39.5583 9.61522L42.3867 12.4437L38.1441 16.6863L35.3157 13.8579L39.5583 9.61522ZM5.61719 12.4437L8.44561 9.61522L12.6882 13.8579L9.85983 16.6863L5.61719 12.4437ZM14.002 28C14.002 22.4772 18.4791 18 24.0019 18V22C20.6883 22 18.002 24.6862 18.002 28H14.002Z" />
</svg>
