<svg viewBox="0 0 48 48" fill="currentColor" xmlns="http://www.w3.org/2000/svg">
<path d="M10 14C10 12.3431 11.3431 11 13 11C14.6569 11 16 12.3431 16 14C16 15.6569 14.6569 17 13 17C11.3431 17 10 15.6569 10 14ZM13 7C9.134 7 6 10.134 6 14C6 17.866 9.134 21 13 21C16.866 21 20 17.866 20 14C20 10.134 16.866 7 13 7ZM24 16H40V12H24V16ZM32 34C32 32.3432 33.3432 31 35 31C36.6568 31 38 32.3432 38 34C38 35.6568 36.6568 37 35 37C33.3432 37 32 35.6568 32 34ZM35 27C31.134 27 28 30.134 28 34C28 37.866 31.134 41 35 41C38.866 41 42 37.866 42 34C42 30.134 38.866 27 35 27ZM8 32V36H24V32H8Z" />
</svg>
