<svg  viewBox="0 0 48 48" fill="currentColor" xmlns="http://www.w3.org/2000/svg">
<path d="M28 38C28 36.6676 27.19 35.2162 25.376 34.0068C23.576 32.8069 20.9739 32 18 32C15.0261 32 12.424 32.8069 10.624 34.0068C8.81002 35.2162 8 36.6676 8 38C8 39.1046 7.10457 40 6 40C4.89543 40 4 39.1046 4 38C4 34.9141 5.87613 32.3648 8.40527 30.6787C10.9484 28.9833 14.3466 28 18 28C21.6534 28 25.0516 28.9833 27.5947 30.6787C30.1239 32.3648 32 34.9141 32 38C32 39.1046 31.1046 40 30 40C28.8954 40 28 39.1046 28 38ZM40.5859 18.5859C41.367 17.8049 42.633 17.8049 43.4141 18.5859C44.1951 19.367 44.1951 20.633 43.4141 21.4141L35.4141 29.4141C34.633 30.1951 33.367 30.1951 32.5859 29.4141L28.5859 25.4141C27.8049 24.633 27.8049 23.367 28.5859 22.5859C29.367 21.8049 30.633 21.8049 31.4141 22.5859L34 25.1719L40.5859 18.5859ZM24 16C24 12.6863 21.3137 10 18 10C14.6863 10 12 12.6863 12 16C12 19.3137 14.6863 22 18 22C21.3137 22 24 19.3137 24 16ZM28 16C28 21.5228 23.5228 26 18 26C12.4772 26 8 21.5228 8 16C8 10.4772 12.4772 6 18 6C23.5228 6 28 10.4772 28 16Z" />
</svg>
