<svg  viewBox="0 0 48 48" fill="currentColor" xmlns="http://www.w3.org/2000/svg">
<path d="M20.2102 5.39554C22.3934 3.53514 25.6052 3.53515 27.7884 5.39554L30.2307 7.47659C30.5263 7.72836 30.8924 7.87945 31.2776 7.91019H31.2766L34.4749 8.16507C37.3334 8.39318 39.6049 10.6627 39.8333 13.5225V13.5235L40.0882 16.7217L40.1048 16.8643C40.1578 17.1961 40.3017 17.5101 40.5227 17.7696H40.5237L42.6028 20.21C44.4631 22.393 44.4643 25.6048 42.6038 27.7881L40.5237 30.2295C40.2717 30.5252 40.1189 30.8924 40.0882 31.2774V31.2784L39.8323 34.4766C39.6039 37.3338 37.3374 39.6057 34.4768 39.834L31.2776 40.0899C30.8905 40.1208 30.5239 40.2718 30.2298 40.5225L27.7884 42.6035C25.6054 44.4638 22.3936 44.4641 20.2102 42.6035H20.2093L17.7679 40.5225V40.5215C17.51 40.3021 17.1971 40.1595 16.8645 40.1065L16.721 40.0889L13.5218 39.834C10.6613 39.6057 8.39358 37.3343 8.16532 34.4766L7.90946 31.2784C7.87876 30.8937 7.7272 30.5266 7.47489 30.2305V30.2295L5.39579 27.7871C3.5358 25.6044 3.53401 22.3945 5.39481 20.211L7.47587 17.7686C7.72491 17.4763 7.87735 17.1112 7.90848 16.7217V16.7207L8.16434 13.5225C8.39296 10.6619 10.6673 8.39309 13.5247 8.16507L16.72 7.91019L16.8636 7.89261C17.1967 7.83948 17.51 7.69637 17.7679 7.47659L20.2102 5.39554ZM25.1946 8.43948C24.5065 7.85306 23.4921 7.85306 22.804 8.43948L20.3626 10.5205C19.4269 11.3179 18.2633 11.7997 17.0384 11.8975L13.8421 12.1524C12.9394 12.2246 12.2234 12.9424 12.1516 13.8418L11.8958 17.0401C11.8043 18.1853 11.3786 19.2795 10.6673 20.1846L10.5208 20.3633L8.43876 22.8057C7.88943 23.4503 7.85506 24.3796 8.33622 25.0606L8.43973 25.1934V25.1944L10.5188 27.6358C11.3149 28.5699 11.7987 29.7324 11.8968 30.959L12.1526 34.1573V34.1582C12.2248 35.0607 12.9403 35.7749 13.8401 35.8467L17.0393 36.1016C18.1881 36.1933 19.2817 36.6228 20.1848 37.333L20.3626 37.4785L22.804 39.5596L22.9368 39.6621C23.6174 40.1431 24.5483 40.1092 25.1936 39.5596L27.635 37.4785H27.636C28.5723 36.6807 29.735 36.1993 30.9593 36.1016L34.1585 35.8467L34.3245 35.8262C35.1448 35.6854 35.7774 35.0038 35.845 34.1573L36.1009 30.959C36.1988 29.7328 36.6824 28.5694 37.4788 27.6348L39.5589 25.1934L39.6624 25.0606C40.1431 24.38 40.1087 23.4499 39.5589 22.8047L37.4788 20.3633C36.683 19.4294 36.1989 18.2671 36.1009 17.0401V17.0391L35.846 13.8409C35.774 12.9405 35.0592 12.2245 34.1575 12.1524L30.9593 11.8975C29.7331 11.7996 28.5709 11.3172 27.636 10.5205L25.1946 8.43948ZM28.5852 18.585C29.3662 17.8044 30.6324 17.8043 31.4134 18.585C32.1944 19.366 32.1944 20.633 31.4134 21.4141L23.4134 29.4141C22.6324 30.1949 21.3663 30.1949 20.5852 29.4141L16.5852 25.4141C15.8042 24.633 15.8042 23.366 16.5852 22.585C17.3662 21.8044 18.6324 21.8043 19.4134 22.585L21.9993 25.1709L28.5852 18.585Z" />
</svg>
