<svg  viewBox="0 0 60 40" fill="currentColor" xmlns="http://www.w3.org/2000/svg">
<path d="M36.8848 16.7017V23.2992H49.7755C48.3171 29.1058 43.0995 33.4033 36.8848 33.4033C29.5416 33.4033 23.5881 27.4025 23.5881 20.0008C23.5881 12.5992 29.5416 6.59833 36.8848 6.59833C41.613 6.59833 45.765 9.08667 48.122 12.8342H55.4132C52.5543 5.32833 45.3375 0 36.8848 0H19.7082C8.88347 0 0 8.95417 0 20C0 31.0458 8.88347 40 19.8421 40H36.8848C43.8097 40 49.9045 36.4233 53.4546 31.0042V39.4167H60V16.7017H36.8848ZM17.0427 20C17.0427 29.2925 23.3302 37.1042 31.8515 39.35C21.9586 38.5325 14.183 30.1825 14.183 20C14.183 9.8175 22.0429 1.37583 31.8995 0.636667C23.3541 2.86583 17.0427 10.69 17.0427 20ZM26.1296 39.3442C16.2664 38.4975 8.52218 30.1608 8.52218 20C8.52218 9.83917 16.2912 1.47583 26.0651 0.651667C17.6264 2.89917 11.3414 10.7092 11.3414 20C11.3414 29.2908 17.6189 37.0917 26.1296 39.3442ZM2.84073 20C2.84073 9.79667 10.6494 1.4325 20.4588 0.644167C12.0078 2.88333 5.71039 10.7 5.71039 20C5.71039 29.3 12.0003 37.1067 20.5233 39.3508C10.6238 38.54 2.84073 30.1867 2.84073 20Z" />
</svg>
